<?xml version="1.0" encoding="UTF-8"?>
<svg width="48" height="48" viewBox="0 0 24 24" fill="none" xmlns="http://www.w3.org/2000/svg">
  <path d="M12 2C6.48 2 2 6.48 2 12C2 17.52 6.48 22 12 22C17.52 22 22 17.52 22 12C22 6.48 17.52 2 12 2ZM19.46 11H12.83L15.24 8.59L13.83 7.17L9 12L13.83 16.83L15.24 15.41L12.83 13H19.46C19.74 13 20 12.55 19.99 12.01C19.99 11.45 19.73 11 19.46 11Z" fill="#4F46E5"/>
  <path d="M8 13H5.62C5.28 13 5 12.55 5 12C5 11.45 5.28 11 5.62 11H8V13Z" fill="#4F46E5"/>
  <path d="M10 16H5.62C5.28 16 5 15.55 5 15C5 14.45 5.28 14 5.62 14H10V16Z" fill="#4F46E5"/>
  <path d="M10 10H5.62C5.28 10 5 9.55 5 9C5 8.45 5.28 8 5.62 8H10V10Z" fill="#4F46E5"/>
</svg>
